<?xml version="1.0" encoding="utf-8"?>
<!-- Generator: Adobe Illustrator 25.2.3, SVG Export Plug-In . SVG Version: 6.00 Build 0)  -->
<svg version="1.1" id="Layer_1" xmlns="http://www.w3.org/2000/svg" xmlns:xlink="http://www.w3.org/1999/xlink" x="0px" y="0px"
	 viewBox="0 0 500.6 159.9" style="enable-background:new 0 0 500.6 159.9;" xml:space="preserve">
<style type="text/css">
	.st0{fill:#FFFFFF;}
</style>
<g>
	<g>
		<path class="st0" d="M213.1,96h-21.9v-1.2c4-0.4,7.1-1.1,8.5-5.1l23.2-61.7l-2.9-7.4h13.1L260,90.8c1.2,2.9,4,3.8,7.6,4V96h-30.4
			v-1.2c6.5-0.2,8.9-1.6,8.9-4.6c0-1.2-0.4-2.7-1.1-4.3l-7.4-19.4h-26.6l-7.1,19.3c-0.5,1.6-0.9,3-0.9,4c0,3.3,3.1,4.7,10.1,4.9V96z
			 M224,31l-12.4,33.7h25.3L224,31z"/>
		<path class="st0" d="M337.1,97.1l-51.7-64.6v54.7c0,6.2,2.8,7.1,12.8,7.7V96h-25.3v-1.2c7.8-0.6,10.2-1.5,10.2-7.7V29.7
			c-3.7-4.4-6.8-6.9-10.6-7.1v-1.2h20.5l43.5,55.8v-47c0-6.2-2.6-7.1-12.7-7.7v-1.2H349v1.2c-7.8,0.6-10.2,1.5-10.2,7.7v66.9H337.1z
			"/>
		<path class="st0" d="M390.1,62.4v-1.3h29.8v1.3c-7.7,0.7-8.9,1.5-8.9,7.4v19.7c-6.8,4.6-15.7,7.6-24.9,7.6
			c-22.5,0-37.1-16.3-37.1-36.7c0-23.8,16.7-40.1,38.6-40.1c8.3,0,16,2.4,21.7,6.2v16.4h-1c-2.2-12.4-10.6-21.1-21.3-21.1
			c-16.3,0-24.7,16.1-24.7,35.6c0,20,7.8,38,24,38c4.7,0,9.3-1,12.7-3.9V69.9C399.1,63.9,397.8,63.2,390.1,62.4z"/>
		<path class="st0" d="M422.1,96v-1.2c7.7-0.7,8.9-1.6,8.9-7.4V30c0-5.9-1.3-6.7-8.9-7.4v-1.2h56.8l0.5,18.4h-1.1
			c-4.5-13.6-9.1-16.5-18.3-16.5h-16.5v33.2h15.3c7,0,8.8-4.4,9.6-10.8h1.2v23.7h-1.2c-0.7-6.6-2.6-11-9.6-11h-15.3v28.5
			c0,5.7,3,7.2,10,7.2h8.4c8,0,15.2-5.2,20.4-19.9h1.1L480,96H422.1z"/>
	</g>
	<g>
		<g>
			<path class="st0" d="M76.9,140c-0.8,0-7-5.3-7-5.3c0.9,0,7-5.2,7-5.2s6.1,5.2,7,5.2C84,134.7,77.7,140,76.9,140z"/>
		</g>
		<g>
			<path class="st0" d="M76.9,20.3c0.8,0,7,5.3,7,5.3c-0.9,0-7,5.2-7,5.2s-6.1-5.2-7-5.2C69.9,25.6,76.1,20.3,76.9,20.3z"/>
		</g>
		<g>
			<path class="st0" d="M136.8,80.1c0,0.8-5.3,7-5.3,7c0-0.9-5.2-7-5.2-7s5.2-6.1,5.2-7C131.5,73.1,136.8,79.3,136.8,80.1z"/>
		</g>
		<g>
			<path class="st0" d="M17.1,80.1c0-0.8,5.3-7,5.3-7c0,0.9,5.2,7,5.2,7s-5.2,6.1-5.2,7C22.4,87.2,17.1,80.9,17.1,80.1z"/>
		</g>
		<g>
			<path class="st0" d="M106.9,131.9c-0.7,0.4-8.7-1-8.7-1c0.8-0.5,3.5-8.1,3.5-8.1s7.9,1.5,8.7,1
				C110.4,123.8,107.6,131.5,106.9,131.9z"/>
		</g>
		<g>
			<path class="st0" d="M46.9,28.4c0.7-0.4,8.7,1,8.7,1c-0.8,0.5-3.5,8.1-3.5,8.1s-7.9-1.5-8.7-1C43.5,36.5,46.2,28.8,46.9,28.4z"/>
		</g>
		<g>
			<path class="st0" d="M128.7,50.1c0.4,0.7-1,8.7-1,8.7c-0.5-0.8-8.1-3.5-8.1-3.5s1.5-7.9,1-8.7C120.6,46.7,128.3,49.4,128.7,50.1z
				"/>
		</g>
		<g>
			<path class="st0" d="M25.2,110.1c-0.4-0.7,1-8.7,1-8.7c0.5,0.8,8.1,3.5,8.1,3.5s-1.5,7.9-1,8.7C33.3,113.6,25.6,110.8,25.2,110.1
				z"/>
		</g>
		<g>
			<path class="st0" d="M128.8,110c-0.4,0.7-8.1,3.5-8.1,3.5c0.5-0.8-1-8.7-1-8.7s7.6-2.7,8-3.5C127.7,101.2,129.2,109.3,128.8,110z
				"/>
		</g>
		<g>
			<path class="st0" d="M25.1,50.3c0.4-0.7,8.1-3.5,8.1-3.5c-0.5,0.8,1,8.7,1,8.7s-7.6,2.7-8,3.5C26.1,59,24.7,51,25.1,50.3z"/>
		</g>
		<g>
			<path class="st0" d="M106.8,28.3c0.7,0.4,3.5,8.1,3.5,8.1c-0.8-0.5-8.7,1-8.7,1s-2.7-7.6-3.5-8C98,29.3,106.1,27.9,106.8,28.3z"
				/>
		</g>
		<g>
			<path class="st0" d="M47.1,132c-0.7-0.4-3.5-8.1-3.5-8.1c0.8,0.5,8.7-1,8.7-1s2.7,7.6,3.5,8C55.8,130.9,47.8,132.4,47.1,132z"/>
		</g>
		<g>
			<path class="st0" d="M76.9,114.2c-0.3-0.3-3.3-7.7-3.3-7.7c0.3-0.3,3.3-7.8,3.3-7.8s3,7.5,3.3,7.8
				C80.2,106.5,77.3,113.9,76.9,114.2z"/>
		</g>
		<g>
			<path class="st0" d="M76.9,45.7c0.3,0.3,3.3,7.7,3.3,7.7c-0.3,0.3-3.3,7.8-3.3,7.8s-3-7.5-3.3-7.8C73.6,53.4,76.6,46,76.9,45.7z"
				/>
		</g>
		<g>
			<path class="st0" d="M111.2,80c-0.3,0.3-7.7,3.3-7.7,3.3c-0.3-0.3-7.8-3.3-7.8-3.3s7.5-3,7.8-3.3C103.5,76.7,110.9,79.6,111.2,80
				z"/>
		</g>
		<g>
			<path class="st0" d="M42.7,80c0.3-0.3,7.7-3.3,7.7-3.3c0.3,0.3,7.8,3.3,7.8,3.3s-7.5,3-7.8,3.3C50.4,83.3,43,80.3,42.7,80z"/>
		</g>
		<g>
			<path class="st0" d="M94.2,50.3c0.1,0.4-1,8.3-1,8.3c-0.4,0.1-6.8,5.1-6.8,5.1s1.2-8,1.1-8.4C87.4,55.4,93.7,50.5,94.2,50.3z"/>
		</g>
		<g>
			<path class="st0" d="M59.7,109.6c-0.1-0.4,1-8.3,1-8.3c0.4-0.1,6.8-5.1,6.8-5.1s-1.2,8-1.1,8.4C66.4,104.6,60.1,109.5,59.7,109.6
				z"/>
		</g>
		<g>
			<path class="st0" d="M106.7,63c-0.1,0.4-5.1,6.7-5.1,6.7c-0.4-0.1-8.4,1-8.4,1s5.1-6.3,5.1-6.7C98.4,64,106.3,62.9,106.7,63z"/>
		</g>
		<g>
			<path class="st0" d="M47.1,96.9c0.1-0.4,5.1-6.7,5.1-6.7c0.4,0.1,8.4-1,8.4-1s-5.1,6.3-5.1,6.7C55.5,96,47.6,97,47.1,96.9z"/>
		</g>
		<g>
			<path class="st0" d="M106.6,97.1c-0.4,0.1-8.3-1-8.3-1c-0.1-0.4-5.1-6.7-5.1-6.7s8,1.2,8.4,1C101.6,90.4,106.5,96.6,106.6,97.1z"
				/>
		</g>
		<g>
			<path class="st0" d="M47.2,62.9c0.4-0.1,8.3,1,8.3,1c0.1,0.4,5.1,6.7,5.1,6.7s-8-1.2-8.4-1C52.3,69.6,47.3,63.3,47.2,62.9z"/>
		</g>
		<g>
			<path class="st0" d="M93.9,109.8c-0.4-0.1-6.7-5.1-6.7-5.1c0.1-0.4-1-8.4-1-8.4s6.3,5.1,6.7,5.1C92.9,101.4,94,109.3,93.9,109.8z
				"/>
		</g>
		<g>
			<path class="st0" d="M60,50.2c0.4,0.1,6.7,5.1,6.7,5.1c-0.1,0.4,1,8.4,1,8.4s-6.3-5.1-6.7-5.1C61,58.5,59.9,50.6,60,50.2z"/>
		</g>
		<g>
			<path class="st0" d="M89.5,126.7c-0.8-0.4-7-3.6-6.5-4.6c0.6-1.1,3-8.3,3-8.3s5.7,5,6.7,5.6C93.7,120.1,90,126,89.5,126.7z"/>
		</g>
		<g>
			<path class="st0" d="M64.5,126.7c0.8-0.4,7-3.6,6.5-4.6c-0.6-1.1-3-8.3-3-8.3s-5.7,5-6.7,5.6C60.3,120.1,64,126,64.5,126.7z"/>
		</g>
		<g>
			<path class="st0" d="M89.5,33.3c-0.8,0.4-7,3.6-6.5,4.6c0.6,1.1,3,8.3,3,8.3s5.7-5,6.7-5.6C93.7,39.9,90,34,89.5,33.3z"/>
		</g>
		<g>
			<path class="st0" d="M64.5,33.3c0.8,0.4,7,3.6,6.5,4.6c-0.6,1.1-3,8.3-3,8.3s-5.7-5-6.7-5.6C60.3,39.9,64,34,64.5,33.3z"/>
		</g>
		<g>
			<path class="st0" d="M123.7,67.5c-0.4,0.8-3.6,7-4.6,6.5c-1.1-0.6-8.3-3-8.3-3s5-5.7,5.6-6.7C117.1,63.3,123,67,123.7,67.5z"/>
		</g>
		<g>
			<path class="st0" d="M123.7,92.5c-0.4-0.8-3.6-7-4.6-6.5c-1.1,0.6-8.3,3-8.3,3s5,5.7,5.6,6.7C117.1,96.7,123,93,123.7,92.5z"/>
		</g>
		<g>
			<path class="st0" d="M30.3,67.5c0.4,0.8,3.6,7,4.6,6.5c1.1-0.6,8.3-3,8.3-3s-5-5.7-5.6-6.7C37,63.3,31.1,67,30.3,67.5z"/>
		</g>
		<g>
			<path class="st0" d="M111.3,114c0.1-0.9,0.4-7.9-0.8-7.9c-1.2,0-8.6-1.5-8.6-1.5s1.5,7.5,1.5,8.7
				C103.4,114.4,110.4,114.2,111.3,114z"/>
		</g>
		<g>
			<path class="st0" d="M42.7,46c-0.1,0.9-0.4,7.9,0.8,7.9c1.2,0,8.6,1.5,8.6,1.5s-1.5-7.5-1.5-8.7S43.6,45.8,42.7,46z"/>
		</g>
		<g>
			<path class="st0" d="M30.3,92.5c0.4-0.8,3.6-7,4.6-6.5c1.1,0.6,8.3,3,8.3,3s-5,5.7-5.6,6.7C37,96.7,31.1,93,30.3,92.5z"/>
		</g>
		<g>
			<path class="st0" d="M111.2,45.9c0.1,0.9,0.4,7.9-0.8,7.9c-1.2,0.1-8.6,1.6-8.6,1.6s1.5-7.5,1.5-8.7S110.3,45.8,111.2,45.9z"/>
		</g>
		<g>
			<path class="st0" d="M42.8,114.1c-0.1-0.9-0.4-7.9,0.8-7.9c1.2-0.1,8.6-1.6,8.6-1.6s-1.5,7.5-1.5,8.7
				C50.7,114.5,43.7,114.2,42.8,114.1z"/>
		</g>
		<circle class="st0" cx="76.9" cy="80" r="6"/>
	</g>
	<g>
		<g>
			<path class="st0" d="M204.1,133.8c-0.3,1.9-0.9,6.5-6.2,6.5c-5.7,0-7-5.6-7-13.1c0-9.2,2.3-13.3,7.2-13.3c4.9,0,5.9,3.9,6,6.3
				h-0.7c-0.2-2.4-1.1-5.7-5.3-5.7c-4.1,0-6.4,3.3-6.4,12.6c0,7.5,1.4,12.5,6.3,12.5c4.6,0,5.2-4.2,5.4-5.9H204.1z"/>
			<path class="st0" d="M227,126.9c0,8.6-1.6,13.4-6.9,13.4c-4.8,0-6.9-3.9-6.9-13.4c0-9.6,2.5-13,7-13
				C224.7,113.9,227,117.4,227,126.9z M214,126.9c0,9.3,2,12.8,6.1,12.8c4.9,0,6.2-5,6.2-12.7c0-8.4-1.7-12.4-6.1-12.4
				C216.3,114.5,214,117.8,214,126.9z"/>
			<path class="st0" d="M236.8,134c0.1,3.4,2.1,5.7,5.5,5.7c3.5,0,5.4-2.3,5.4-5.9c0-3.4-1.5-5.3-5.3-7.1c-3.7-1.8-5.4-3.3-5.4-7
				c0-3.1,1.6-5.8,5.5-5.8c3.8,0,5.4,2.4,5.4,5.9h-0.7c0-3.5-1.8-5.3-4.8-5.3c-3.5,0-4.7,2.5-4.7,5.2c0,3.3,1.2,4.6,4.9,6.4
				c4.3,2,5.8,4,5.8,7.8c0,3.3-1.5,6.5-6.2,6.5c-4.7,0-6.2-3.3-6.2-6.3H236.8z"/>
			<path class="st0" d="M274.6,127.2c0-5.3,0-10,0.1-12.4h0c-0.5,1.9-4.7,16.4-7.3,25.2h-0.9c-2.4-8.9-6-20.9-7-25.1h0
				c0.1,2.6,0.1,9,0.1,13.4V140h-0.7v-25.8h1.1c3.1,11,6.7,23.4,7,24.9h0c0.3-1.4,4.2-14.5,7.2-24.9h1.2V140h-0.8V127.2z"/>
			<path class="st0" d="M297.5,126.5h-9.4v12.8h10.4l-0.2,0.6h-11v-25.8h10.8v0.6h-10v11.1h9.4V126.5z"/>
			<path class="st0" d="M312.4,114.8h-6.3v-0.6h13.4v0.6h-6.3V140h-0.8V114.8z"/>
			<path class="st0" d="M329,114.2V140h-0.8v-25.8H329z"/>
			<path class="st0" d="M353.2,133.8c-0.3,1.9-0.9,6.5-6.2,6.5c-5.7,0-7-5.6-7-13.1c0-9.2,2.3-13.3,7.2-13.3c4.9,0,5.9,3.9,6,6.3
				h-0.7c-0.2-2.4-1.1-5.7-5.3-5.7c-4.1,0-6.4,3.3-6.4,12.6c0,7.5,1.4,12.5,6.3,12.5c4.6,0,5.2-4.2,5.4-5.9H353.2z"/>
			<path class="st0" d="M376.7,140v-25.8h1.1c10.1,21.7,10.9,23.4,11.5,24.8h0c-0.1-2.8-0.1-7.4-0.1-11.6v-13.2h0.8V140H389
				c-10.3-22-11-23.7-11.6-25h0c0.1,3.2,0.1,7.2,0.1,12v13H376.7z"/>
			<path class="st0" d="M402.6,114.2v18.6c0,3.6,0.9,6.9,5.5,6.9c4.6,0,5.6-2.8,5.6-6.9v-18.6h0.8v18.6c0,4.6-1.4,7.5-6.4,7.5
				c-4.6,0-6.2-2.8-6.2-7.4v-18.7H402.6z"/>
			<path class="st0" d="M426.9,126.9v13h-0.8v-25.8h5.4c3.9,0,6.3,2,6.3,6.2c0,3.6-1.7,5.7-4.3,6.2c3.1,0.6,4,2.7,4,6.5v1.3
				c0,2,0.1,4.5,0.3,5.6h-0.8c-0.1-1.1-0.3-3.7-0.3-5.6v-1.3c0-5-1.9-6.2-5.7-6.2H426.9z M426.9,126.3h4.4c3.5,0,5.8-1.7,5.8-5.9
				c0-3.3-1.6-5.6-5.6-5.6h-4.6V126.3z"/>
			<path class="st0" d="M448.2,134c0.1,3.4,2.1,5.7,5.5,5.7c3.5,0,5.4-2.3,5.4-5.9c0-3.4-1.5-5.3-5.3-7.1c-3.7-1.8-5.4-3.3-5.4-7
				c0-3.1,1.6-5.8,5.5-5.8c3.8,0,5.4,2.4,5.4,5.9h-0.7c0-3.5-1.8-5.3-4.8-5.3c-3.5,0-4.7,2.5-4.7,5.2c0,3.3,1.2,4.6,4.9,6.4
				c4.3,2,5.8,4,5.8,7.8c0,3.3-1.5,6.5-6.2,6.5c-4.7,0-6.2-3.3-6.2-6.3H448.2z"/>
			<path class="st0" d="M480.7,126.5h-9.4v12.8h10.4l-0.2,0.6h-11v-25.8h10.8v0.6h-10v11.1h9.4V126.5z"/>
		</g>
	</g>
	<g>
		<rect x="163.2" y="19.6" class="st0" width="1.3" height="120.7"/>
	</g>
</g>
</svg>
